<?xml version="1.0" standalone="no"?><!DOCTYPE svg PUBLIC "-//W3C//DTD SVG 1.1//EN" "http://www.w3.org/Graphics/SVG/1.1/DTD/svg11.dtd"><svg t="1621147248989" class="icon" viewBox="0 0 1024 1024" version="1.1" xmlns="http://www.w3.org/2000/svg" p-id="868" xmlns:xlink="http://www.w3.org/1999/xlink" width="200" height="200"><defs><style type="text/css"></style></defs><path d="M734.4 388.1H313.8V264.7c0-50.9 20-98.9 56.2-135.2 36.3-36.3 84.3-56.2 135.1-56.2h10.7c50.9 0 98.9 20 135.1 56.2 36.3 36.3 56.2 84.3 56.2 135.2 0 15.9 12.9 28.9 28.9 28.9 16 0 28.9-12.9 28.9-28.9 0-137.4-111.8-249.1-249.1-249.1h-10.7C367.8 15.5 256 127.3 256 264.7v125.9C164.3 405.3 94 485 94 580.7v235.6c0 106.2 86.4 192.6 192.6 192.6h447.8c106.2 0 192.6-86.4 192.6-192.6V580.7c0-106.2-86.4-192.6-192.6-192.6zM564.8 691.9l-10.5 8.7v120.9c0 22.7-18.5 41.2-41.2 41.2-22.7 0-41.2-18.5-41.2-41.2V700.6l-10.5-8.7c-18.8-15.5-29.6-38.4-29.6-62.7 0-44.8 36.5-81.3 81.3-81.3s81.3 36.5 81.3 81.3c0 24.4-10.8 47.2-29.6 62.7z" fill="#444444" p-id="869"></path></svg>